<svg viewBox="0 0 263 113" fill="none" xmlns="http://www.w3.org/2000/svg" aria-hidden="true"
    class="text-white w-40" data-astro-cid-sz7xmlte="">
    <path
        d="M.803 22.395v34.544h34.521V42.135H15.597v-19.74zM23 .19v14.807h19.73v19.735h14.794V.189zm73.27 48.341h9.756v29.57h-9.757zm15.048 0h9.755v29.57h-9.755zm91.444 8.736v-1.592c0-5.724 3.716-7.474 11.952-7.474h11.099v5.386h-8.46c-3.91 0-4.829.573-4.829 2.695v.985h13.289v5.39h-13.289V78.09h-9.762zm-67.353 14.012c0 1.146.513 1.91 6.051 1.91h3.456c4.62 0 5.785-.277 5.785-1.55 0-1.22-.758-1.715-4.212-1.715h-9.147c-9.098-.044-11.789-1.636-11.789-7.35 0-5.189 5.184-5.965 11.89-5.965h6.809c12.753 0 14.989 1.433 15.091 6.335h-9.754c-.513-1.23-1.428-1.433-7.271-1.433-5.637 0-6.7.117-6.7 1.558 0 .893.755 1.229 5.842 1.229h6.754c11.687 0 12.554 3.133 12.554 6.856 0 5.513-2.745 6.946-13.872 6.946h-9.249c-8.989 0-12.299-1.678-12.299-6.821zm93.109-5.069c0-7.882 4.87-9.59 11.987-9.59h6.802c10.37 0 14.639 1.752 14.639 8.974v3.512h-23.687v1.27c0 2.2 1.933 2.814 5.999 2.814h2.997c5.285 0 5.54-1.136 5.54-2.357h9.151v.892c0 5.228-5.793 6.375-12.854 6.375h-7.316c-6.459 0-13.258-.988-13.258-9.888zm23.977-1.762c0-2.481-1.429-2.938-7.12-2.938-6.352 0-7.116.457-7.116 2.938zm-64.124-7.51h-11.333c-8.231 0-11.685.943-11.685 6.574h9.448c.102-1.472.919-1.675 3.764-1.675h5.743c3.81 0 4.563.893 4.563 2.94h-10.153c-9.452 0-14.341.329-14.341 6.001v1.72c0 4.901 3.811 5.642 9.754 5.592l24.499.007V64.405c0-4.892-3.551-7.468-10.259-7.468m-4.277 16.25h-5.279c-3.812 0-4.967-.329-4.967-2.003.007-1.599 1.158-1.995 4.968-1.995h5.278c3.813 0 4.975.362 4.975 1.995 0 1.649-1.167 2.003-4.975 2.003M81.526 56.938H70.193c-8.23 0-11.684.943-11.684 6.574h9.452c.097-1.472.914-1.675 3.764-1.675h5.738c3.81 0 4.566.893 4.566 2.94H71.875c-9.454 0-14.338.329-14.338 6.001v1.72c0 4.901 3.805 5.642 9.754 5.592l24.494.007V64.405c0-4.892-3.55-7.468-10.26-7.468m-4.277 16.25h-5.277c-3.813 0-4.97-.329-4.97-2.003.003-1.599 1.159-1.995 4.975-1.995h5.28c3.81 0 4.972.362 4.972 1.995 0 1.649-1.167 2.003-4.98 2.003m-8.42 35.222v-6.239c0-1.325-.482-2.374-1.928-2.374-1.232 0-2.445 1.086-2.445 3.423v5.19H63.33v-6.239c0-1.325-.483-2.374-1.928-2.374-1.232 0-2.445 1.086-2.445 3.423v5.19h-1.125v-7.177c0-.718 0-1.454-.071-2.208h1.088v1.582l.036.018c.357-.643.893-1.821 2.838-1.821.804 0 2.124.349 2.41 1.987h.035a3.06 3.06 0 0 1 2.91-1.987c1.838 0 2.873 1.325 2.873 3.146v6.46zm8.908-4.73h-.32c-1.946 0-4.267.203-4.267 2.264 0 1.234.857 1.693 1.892 1.693 2.642 0 2.695-2.374 2.695-3.386zm.108 3.221h-.036c-.5 1.123-1.767 1.73-2.892 1.73-2.587 0-2.998-1.803-2.998-2.65 0-3.147 3.248-3.294 5.604-3.294h.214v-.479c0-1.601-.553-2.411-2.07-2.411-.946 0-1.838.221-2.677.773v-1.122c.696-.35 1.873-.644 2.677-.644 2.249 0 3.195 1.049 3.195 3.496v4.141c0 .755 0 1.325.09 1.969h-1.107zm7.016.735c2 0 2.695-2.208 2.695-3.919 0-1.712-.696-3.921-2.695-3.921-2.142 0-2.695 2.098-2.695 3.921 0 1.821.553 3.919 2.695 3.919m3.82.773h-1.125v-1.49h-.035c-.607 1.196-1.535 1.711-2.838 1.711-2.499 0-3.748-2.134-3.748-4.913 0-2.854 1.07-4.914 3.748-4.914 1.784 0 2.677 1.343 2.838 1.803h.035v-6h1.125zm8.174-5.354c0-1.638-.643-3.258-2.32-3.258-1.66 0-2.677 1.712-2.677 3.258zm.553 5.061c-.785.332-1.802.515-2.641.515-3.017 0-4.141-2.097-4.141-4.913 0-2.872 1.535-4.914 3.838-4.914 2.57 0 3.623 2.134 3.623 4.656v.589h-6.23c0 1.987 1.035 3.588 3 3.588.82 0 2.016-.35 2.551-.699zm7.626-9.093h1.124v9.386h-1.124zm1.124-2.503h-1.124v-1.546h1.124zm2.766 4.713c0-.718 0-1.454-.071-2.208h1.088v1.674h.036c.375-.846 1.053-1.895 2.945-1.895 2.248 0 3.105 1.545 3.105 3.607v5.999h-1.124v-5.705c0-1.767-.607-2.908-2.16-2.908-2.052 0-2.695 1.859-2.695 3.423v5.19h-1.124zm18.048 6.183c2.034 0 2.766-1.987 2.766-3.698 0-2.264-.643-3.921-2.695-3.921-2.142 0-2.695 2.098-2.695 3.921 0 1.84.714 3.698 2.624 3.698m3.891.221c0 2.614-1.143 4.749-4.267 4.749-1.195 0-2.284-.35-2.748-.497l.089-1.16a6 6 0 0 0 2.677.663c2.892 0 3.142-2.172 3.142-4.822h-.036c-.607 1.362-1.606 1.84-2.766 1.84-2.91 0-3.838-2.613-3.838-4.692 0-2.854 1.071-4.914 3.748-4.914 1.214 0 1.999.165 2.838 1.288h.036v-1.067h1.125zm8.175-4.582c0-1.638-.643-3.258-2.32-3.258-1.66 0-2.677 1.712-2.677 3.258zm.554 5.061c-.785.332-1.803.515-2.642.515-3.016 0-4.14-2.097-4.14-4.913 0-2.872 1.534-4.914 3.837-4.914 2.57 0 3.623 2.134 3.623 4.656v.589h-6.229c0 1.987 1.035 3.588 2.998 3.588.822 0 2.017-.35 2.553-.699zm2.734-6.994c0-1.03 0-1.417-.071-2.097h1.124v1.803h.036c.41-1.049 1.178-2.024 2.338-2.024.268 0 .589.055.786.11v1.215a2.9 2.9 0 0 0-.822-.111c-1.784 0-2.266 2.062-2.266 3.755v4.637h-1.125zm16.868 7.288v-6.239c0-1.325-.482-2.374-1.928-2.374-1.231 0-2.445 1.086-2.445 3.423v5.19h-1.124v-6.239c0-1.325-.482-2.374-1.928-2.374-1.232 0-2.445 1.086-2.445 3.423v5.19h-1.125v-7.177c0-.718 0-1.454-.071-2.208h1.089v1.582l.035.018c.357-.643.893-1.821 2.838-1.821.803 0 2.124.349 2.41 1.987h.035a3.06 3.06 0 0 1 2.909-1.987c1.839 0 2.874 1.325 2.874 3.146v6.46zm8.911-4.73h-.322c-1.945 0-4.266.203-4.266 2.264 0 1.234.857 1.693 1.893 1.693 2.641 0 2.695-2.374 2.695-3.386zm.107 3.221h-.036c-.499 1.123-1.767 1.73-2.891 1.73-2.589 0-2.999-1.803-2.999-2.65 0-3.147 3.249-3.294 5.604-3.294h.215v-.479c0-1.601-.554-2.411-2.071-2.411-.946 0-1.838.221-2.677.773v-1.122c.696-.35 1.874-.644 2.677-.644 2.249 0 3.195 1.049 3.195 3.496v4.141c0 .755 0 1.325.089 1.969h-1.106zm3.604-5.668c0-.718 0-1.454-.071-2.208h1.089v1.674h.035c.375-.846 1.054-1.895 2.945-1.895 2.249 0 3.106 1.545 3.106 3.607v5.999h-1.124v-5.705c0-1.767-.607-2.908-2.16-2.908-2.053 0-2.695 1.859-2.695 3.423v5.19h-1.125zm12.373 5.611h.018l2.624-7.821h1.177l-3.641 10.784c-.428 1.288-1.071 2.577-2.337 2.577a5.2 5.2 0 0 1-1.214-.148l.107-.993c.214.073.428.146.838.146.964 0 1.286-.828 1.643-2.042l.232-.828-3.231-9.496h1.232zm9.495.205c.679.349 1.5.588 2.374.588 1.071 0 2.017-.607 2.017-1.674 0-2.227-4.373-1.878-4.373-4.601 0-1.86 1.464-2.558 2.963-2.558.482 0 1.446.11 2.249.423l-.108 1.012a5.2 5.2 0 0 0-2.016-.442c-1.16 0-1.964.369-1.964 1.565 0 1.748 4.48 1.528 4.48 4.601 0 1.987-1.802 2.668-3.177 2.668-.874 0-1.749-.11-2.552-.441zm13.12-3.994c0-1.638-.643-3.258-2.32-3.258-1.66 0-2.678 1.712-2.678 3.258zm.553 5.061c-.785.332-1.803.515-2.641.515-3.017 0-4.141-2.097-4.141-4.913 0-2.872 1.535-4.914 3.837-4.914 2.571 0 3.623 2.134 3.623 4.656v.589h-6.229c0 1.987 1.036 3.588 2.999 3.588.821 0 2.017-.35 2.552-.699zm2.73-9.093h1.125v9.386h-1.125zm1.125-2.503h-1.125v-1.546h1.125zm6.697 3.498h-2.071v6.074c0 .847.304 1.546 1.214 1.546.428 0 .714-.092 1.035-.221l.072.957c-.268.11-.821.258-1.374.258-2 0-2.071-1.418-2.071-3.129v-5.485h-1.785v-.993h1.785V96.76l1.124-.404v2.668h2.071zm10.424-4.454h1.106v12.845h-1.232v-11.41l-2.016 1.822-.678-.828zm12.408 4.159c0-1.583-.839-3.184-2.677-3.184-1.821 0-2.803 1.306-2.803 3.037 0 1.876.911 2.999 2.642 2.999 1.785 0 2.838-1.159 2.838-2.852m1.356 1.803c0 3.884-1.41 7.012-5.622 7.012-.678 0-1.338-.129-1.999-.294l.107-1.215c.518.239 1.339.405 2.053.405 3.23.055 4.23-2.724 4.23-5.337h-.036c-.642 1.086-1.767 1.582-2.927 1.582-1.642 0-3.873-.828-3.873-4.011 0-2.504 1.517-4.233 4.07-4.233 3.301 0 3.997 3.073 3.997 6.091m3.231 2.724c0 1.583.839 3.184 2.677 3.184 1.821 0 2.803-1.307 2.803-3.037 0-1.877-.911-3-2.643-3-1.784 0-2.837 1.16-2.837 2.853m-1.356-1.803c0-3.884 1.41-7.012 5.622-7.012.678 0 1.339.128 1.999.294l-.107 1.215c-.518-.24-1.339-.405-2.052-.405-3.232-.056-4.231 2.723-4.231 5.337h.036c.642-1.086 1.767-1.583 2.926-1.583 1.643 0 3.874.828 3.874 4.012 0 2.503-1.517 4.233-4.069 4.233-3.302 0-3.998-3.073-3.998-6.091m15.21-5.613h-.035l-4.783 7.508h4.818zm-5.943 7.361 5.605-8.632h1.571v8.779h1.837v1.105h-1.837v2.962h-1.233v-2.962h-5.943z"
        fill="currentColor" data-astro-cid-sz7xmlte=""></path>
</svg>