<svg width="198" height="64" fill="none" xmlns="http://www.w3.org/2000/svg" class="flex sm:hidden"><g fill="#234B64"><path d="M195.04 33.452a.773.773 0 00-.381-.495l-5.734-3.093 5.039-1.976a.637.637 0 00.248-.835l-.736-1.375a.61.61 0 00-.832-.247l-5.988 3.23-8.04-4.337 8.057-4.33 5.971 3.213c.09.049.191.073.293.07a.596.596 0 00.539-.345l.736-1.374a.628.628 0 00-.272-.846l-5.005-1.958 5.72-3.093a.828.828 0 00.389-.509.79.79 0 00-.076-.619l-.773-1.34a.825.825 0 00-1.121-.299l-5.545 3.41.812-5.307a.622.622 0 00-.588-.643l-1.571-.044a.63.63 0 00-.622.598l-.217 6.777-7.796 4.811.265-9.145 5.75-3.588a.608.608 0 00.203-.835l-.814-1.323a.623.623 0 00-.856-.189l-4.204 3.358.189-6.495a.835.835 0 00-.235-.594.816.816 0 00-.587-.248h-1.55a.813.813 0 00-.815.814l.189 6.506-4.238-3.351a.62.62 0 00-.853.2l-.797 1.33a.623.623 0 00.192.851l5.768 3.568.262 9.151-7.797-4.81-.213-6.781a.638.638 0 00-.646-.605l-1.54.051a.63.63 0 00-.598.66l.815 5.313-5.535-3.402a.818.818 0 00-.419-.113.802.802 0 00-.708.408l-.774 1.34a.811.811 0 00.059.908.81.81 0 00.24.21l5.737 3.093-5.039 1.98a.613.613 0 00-.244.83l.736 1.375a.596.596 0 00.543.344.655.655 0 00.292-.069l5.967-3.213 8.061 4.33-8.061 4.306-5.967-3.21a.595.595 0 00-.835.268l-.736 1.375a.626.626 0 00.268.842l5.015 1.962-5.726 3.094a.8.8 0 00-.389.501.774.774 0 00.079.626l.774 1.337a.817.817 0 001.117.302l5.545-3.437-.815 5.337a.627.627 0 00.598.64l1.547.051a.624.624 0 00.639-.615l.217-6.774 7.796-4.81-.261 9.15-5.758 3.572a.591.591 0 00-.278.381.557.557 0 00.075.464l.811 1.316a.63.63 0 00.53.292.69.69 0 00.344-.106l4.193-3.358-.182 6.492a.83.83 0 00.231.585.822.822 0 00.577.25h1.557a.83.83 0 00.804-.821l-.189-6.51 4.235 3.382c.105.06.223.093.344.093a.62.62 0 00.526-.292l.815-1.316a.649.649 0 00.075-.464.624.624 0 00-.278-.382l-5.761-3.577-.265-9.145 7.796 4.811.217 6.774a.624.624 0 00.625.598l1.547-.052a.621.621 0 00.595-.646l-.815-5.337 5.538 3.402a.785.785 0 00.409.117.819.819 0 00.715-.412l.774-1.337a.804.804 0 00.075-.625v.003zM198 46.834a.852.852 0 01-.853.849h-41.318a.853.853 0 01-.853-.849V1.821a.855.855 0 01.853-.852h41.305a.85.85 0 01.866.839v45.026zM72.102 24.317c0 6.709-4.724 12.424-11.836 12.424-7.04 0-11.89-5.842-11.89-12.558v-.127c0-6.708 4.72-12.423 11.76-12.423 7.108 0 11.966 5.842 11.966 12.557v.127zm-45.72-6.313c-.003 3.647-2.794 6.052-7.38 6.052h-6.115V11.76h6.047c4.654 0 7.445 2.127 7.445 6.11v.134h.004zM137.088.931l-8.109 26.905L120.007.797h-11.09l-8.975 27.04L91.832.93H78.21l3.53 10.626C77.478 4.62 69.688 0 60.266 0 50.662 0 42.68 4.866 38.445 12.08 36.259 5.007 29.528.93 19.937.93H0v46.494h12.887V34.15h6.38c6.875 0 12.657-2.062 16.205-6.049 1.8 11.53 11.687 20.276 24.664 20.276 14.358 0 25.117-10.829 25.117-24.183v-.138c0-.756-.04-1.498-.11-2.233l8.618 25.946h11.231l9.301-26.775 9.371 26.775h11.234L150.449.93h-13.362zM3.65 59.223a2.22 2.22 0 001.517-.481 1.553 1.553 0 00.556-1.234v-.027a1.515 1.515 0 00-.567-1.282 2.406 2.406 0 00-1.509-.433h-1.96v3.457h1.964zM0 54.23h3.781a4.714 4.714 0 011.516.227c.426.135.819.356 1.155.65.315.285.562.637.726 1.03.174.416.261.865.254 1.316v.028c.01.49-.093.976-.303 1.42a2.933 2.933 0 01-.821 1.03c-.365.283-.78.494-1.224.622a5.014 5.014 0 01-1.495.213H1.688v3.093H0v-9.63zM13.327 58.99c.52.03 1.035-.121 1.454-.43a1.428 1.428 0 00.523-1.169v-.027a1.41 1.41 0 00-.523-1.193 2.32 2.32 0 00-1.468-.405h-2.457v3.223h2.471zm-4.16-4.76h4.284c.546-.01 1.09.075 1.605.254a3.34 3.34 0 011.169.704c.255.266.454.579.588.921.14.368.21.758.206 1.152v.027c.007.363-.052.724-.172 1.066a2.809 2.809 0 01-1.193 1.454 3.62 3.62 0 01-.928.391l2.596 3.636h-1.99l-2.362-3.35h-2.114v3.347H9.168V54.23zM23.719 62.447c.45.007.897-.083 1.31-.265a3.03 3.03 0 001.03-.729c.29-.312.516-.677.668-1.075.162-.421.243-.869.24-1.32v-.027a3.622 3.622 0 00-.24-1.323 3.271 3.271 0 00-4.352-1.825 3.028 3.028 0 00-1.032.728c-.289.313-.515.678-.666 1.076-.16.42-.242.866-.241 1.316v.028c-.002.453.08.902.24 1.326a3.236 3.236 0 001.72 1.818c.414.186.865.278 1.32.272h.003zM23.69 64a5.108 5.108 0 01-2.035-.392 4.778 4.778 0 01-1.578-1.065 4.947 4.947 0 01-1.402-3.485v-.027a5.01 5.01 0 01.371-1.914 4.86 4.86 0 012.61-2.654 5.04 5.04 0 012.062-.398 5.159 5.159 0 012.031.392 4.766 4.766 0 012.606 2.632 5.01 5.01 0 01.371 1.914v.028a4.946 4.946 0 01-.371 1.914 4.86 4.86 0 01-1.031 1.577A5.024 5.024 0 0123.719 64h-.028zM33.12 55.793h-3.049V54.23h7.796v1.563h-3.045v8.042H33.12v-8.042zM39.652 54.23h7.122v1.508H41.34v2.499h4.82v1.508h-4.82v2.581h5.504v1.509h-7.191V54.23zM53.309 64a4.859 4.859 0 01-1.95-.385 4.813 4.813 0 01-2.575-2.622 5.11 5.11 0 01-.367-1.935v-.027a5.129 5.129 0 01.344-1.928 4.86 4.86 0 012.595-2.647 4.951 4.951 0 012.004-.391c.403-.003.805.034 1.2.11.343.065.677.168.997.309.294.127.574.285.835.47.258.184.501.387.729.606l-1.09 1.247c-.367-.34-.779-.63-1.224-.862a3.2 3.2 0 00-1.467-.344 2.995 2.995 0 00-1.269.268c-.382.172-.726.42-1.01.728a3.295 3.295 0 00-.657 1.076c-.158.42-.238.867-.234 1.316v.028c-.004.453.076.902.234 1.326a3.3 3.3 0 00.657 1.09c.285.31.628.56 1.01.735.399.18.832.27 1.269.265a3.198 3.198 0 001.509-.344 5.846 5.846 0 001.25-.914l1.084 1.1c-.239.25-.499.48-.777.687a5.161 5.161 0 01-.87.536c-.329.156-.675.271-1.031.344-.404.08-.815.12-1.227.117l.03.041zM61.339 55.793h-3.05V54.23h7.797v1.563H63.04v8.042H61.34v-8.042zM75.57 62.447a3.125 3.125 0 002.334-.994c.288-.312.514-.677.663-1.075.163-.421.244-.869.241-1.32v-.027a3.621 3.621 0 00-.24-1.323 3.218 3.218 0 00-1.701-1.818 3.329 3.329 0 00-2.63 0 3.11 3.11 0 00-1.032.728c-.29.313-.516.678-.667 1.076-.16.42-.24.866-.237 1.316v.028c-.003.453.078.902.237 1.326a3.234 3.234 0 001.719 1.818c.413.186.863.279 1.316.271l-.003-.006zM75.543 64a5.082 5.082 0 01-2.032-.392 4.813 4.813 0 01-2.61-2.636 4.945 4.945 0 01-.37-1.914v-.027a5.01 5.01 0 01.37-1.914 4.859 4.859 0 011.032-1.578 5.009 5.009 0 013.623-1.474 5.158 5.158 0 012.032.392 4.765 4.765 0 012.605 2.632c.248.608.374 1.258.372 1.914v.028a4.945 4.945 0 01-.372 1.914 4.86 4.86 0 01-1.03 1.577A4.998 4.998 0 0175.538 64h.004zM86.563 63.986a5.032 5.032 0 01-1.688-.268 3.437 3.437 0 01-1.289-.804 3.496 3.496 0 01-.825-1.323 5.349 5.349 0 01-.288-1.832v-5.53h1.687v5.462c-.052.738.18 1.47.647 2.044a2.295 2.295 0 001.784.688 2.353 2.353 0 001.77-.688c.465-.56.697-1.277.646-2.003v-5.499h1.688v5.447c.01.64-.09 1.275-.296 1.88a3.685 3.685 0 01-.828 1.35c-.365.367-.81.644-1.3.812a5.122 5.122 0 01-1.718.268l.01-.004zM97.171 58.99a2.238 2.238 0 001.444-.43 1.43 1.43 0 00.533-1.175v-.028a1.41 1.41 0 00-.52-1.186 2.33 2.33 0 00-1.47-.405h-2.455v3.223h2.468zm-4.156-4.76h4.266a4.667 4.667 0 011.61.254c.432.151.83.391 1.164.704.256.266.457.579.592.921.14.368.209.759.202 1.152v.027c.006.363-.051.723-.168 1.066a2.922 2.922 0 01-.474.835 2.835 2.835 0 01-.722.618c-.289.173-.6.305-.925.392l2.592 3.636h-1.99l-2.345-3.35h-2.114v3.347h-1.688V54.23zM105.971 54.23h1.826l2.289 7.12 2.361-7.148h1.427l2.362 7.148 2.292-7.12h1.771l-3.348 9.674h-1.455L113.135 57l-2.362 6.904h-1.454l-3.348-9.674zM122.124 54.23h1.688v9.605h-1.688V54.23zM126.38 54.23h1.564l5.146 6.64v-6.64h1.663v9.605h-1.416L128.04 57v6.835h-1.66V54.23zM139.583 55.793h-3.046V54.23h7.797v1.563h-3.049v8.042h-1.702v-8.042zM146.118 54.23h7.122v1.508h-5.434v2.499h4.816v1.508h-4.816v2.581h5.503v1.509h-7.191V54.23zM159.472 58.99a2.229 2.229 0 001.441-.43 1.432 1.432 0 00.533-1.175v-.028a1.407 1.407 0 00-.519-1.186 2.343 2.343 0 00-1.468-.405h-2.458v3.223h2.471zm-4.159-4.76h4.283a4.724 4.724 0 011.606.254c.433.151.83.391 1.165.704.256.266.457.579.591.921.14.368.21.758.206 1.152v.027c.003.363-.055.723-.172 1.066-.11.302-.271.584-.474.835a2.829 2.829 0 01-.722.618c-.288.173-.6.305-.924.392l2.595 3.636h-1.99l-2.362-3.35h-2.114v3.347h-1.688V54.23zM168.599 63.972a6.08 6.08 0 01-2.128-.378 5.877 5.877 0 01-1.88-1.158l1.014-1.21c.426.375.903.687 1.416.928a3.919 3.919 0 001.619.324c.44.017.873-.103 1.241-.344a1.032 1.032 0 00.461-.88v-.027a1.12 1.12 0 00-.089-.46.985.985 0 00-.344-.375 2.414 2.414 0 00-.66-.344 9.321 9.321 0 00-1.09-.303c-.467-.104-.926-.24-1.375-.405-.361-.13-.7-.316-1.004-.55a2.135 2.135 0 01-.615-.787 2.692 2.692 0 01-.213-1.127v-.028a2.6 2.6 0 01.925-2.01c.306-.25.655-.443 1.031-.567.424-.14.869-.21 1.316-.206a5.498 5.498 0 011.901.31 5.727 5.727 0 011.585.896l-.866 1.306a5.828 5.828 0 00-1.306-.735 3.605 3.605 0 00-1.303-.255c-.412-.021-.819.1-1.152.344a1.005 1.005 0 00-.412.81v.028c-.005.167.028.333.096.485a.904.904 0 00.344.385c.214.136.445.245.687.323.299.1.688.206 1.135.316.453.113.9.255 1.337.423.351.134.678.327.966.57.25.215.45.483.584.784.138.326.206.677.199 1.03v.028c.008.418-.079.831-.254 1.21-.166.35-.408.659-.708.904-.32.258-.688.45-1.083.563a4.78 4.78 0 01-1.375.193v-.01zM174.405 61.955h1.825v1.88h-1.825v-1.88zM183.026 63.986a5.029 5.029 0 01-1.687-.268 3.353 3.353 0 01-1.29-.804 3.499 3.499 0 01-.825-1.323 5.355 5.355 0 01-.288-1.832v-5.53h1.687v5.462c-.052.738.18 1.47.647 2.044a2.29 2.29 0 001.784.688 2.35 2.35 0 001.77-.688c.466-.56.697-1.277.646-2.003v-5.499h1.688v5.447a5.536 5.536 0 01-.295 1.88c-.177.505-.46.966-.832 1.35a3.325 3.325 0 01-1.296.812 5.126 5.126 0 01-1.719.268l.01-.004zM189.478 54.23h1.688v4.828l4.569-4.828h2.072l-3.994 4.13 4.173 5.475h-2.045l-3.279-4.323-1.496 1.536v2.787h-1.688V54.23z"></path></g></svg>