<svg width="120" height="20" viewBox="0 0 120 20" fill="none" xmlns="http://www.w3.org/2000/svg">
    <path fill-rule="evenodd" clip-rule="evenodd"
        d="M6.90469 15.2338 10.3128 3.96647H10.3543L13.7624 15.2338h2.4937L20.537.433655h-2.66L14.9885 11.0948H14.9469L11.7051.433655H9.12825L5.82408 11.0948H5.78252L3.01865.433655H.150879L4.4941 15.2338H6.90469zm17.04221.0V9.75694C23.9469 9.42247 23.9884 9.10194 24.0716 8.79534 24.1547 8.48875 24.2898 8.21699 24.4768 7.98008 24.6638 7.74316 24.8993 7.55503 25.1834 7.41566 25.4674 7.2763 25.8172 7.20662 26.2328 7.20662 26.6623 7.20662 27.0017 7.30766 27.2511 7.50973 27.5004 7.71181 27.684 7.96266 27.8018 8.26228 27.9195 8.56191 27.9922 8.88244 28.02 9.22388 28.0477 9.56532 28.0615 9.87539 28.0615 10.1541v5.0797h2.4937V8.89986C30.5552 8.38423 30.4929 7.88949 30.3682 7.41566 30.2435 6.94184 30.0357 6.52375 29.7448 6.16141 29.4538 5.79907 29.0763 5.50641 28.6122 5.28343 28.1481 5.06046 27.5836 4.94897 26.9186 4.94897c-.7759.0-1.4097.17071-1.9015.51215C24.5253 5.80256 24.1824 6.18232 23.9884 6.6004H23.9469L23.9884.433655H21.4947L21.4532 15.2338h2.4937zM34.4653 3.19461C34.1536 3.50014 33.7692 3.6529 33.312 3.6529S32.4773 3.49269 32.1794 3.17225C31.8816 2.85182 31.7326 2.47549 31.7326 2.04328c0-.43221.148999999999997-.80854.4468-1.128973C32.4773.593872 32.8548.433655 33.312.433655s.8416.152765 1.1533.458296C34.777 1.19748 34.9329 1.58126 34.9329 2.04328S34.777 2.88908 34.4653 3.19461zm.1143 12.03919V5.19982H32.0859V15.2338h2.4937zm7.5259.1777C41.7246 15.4603 41.3886 15.4847 41.0977 15.4847 40.4327 15.4847 39.8889 15.4115 39.4664 15.2652 39.0438 15.1189 38.7113 14.8959 38.4689 14.5963 38.2264 14.2966 38.0602 13.9238 37.9701 13.4779 37.8801 13.0319 37.8351 12.5163 37.8351 11.931V7.33205H35.7777V5.19982H37.8351V2.29413h2.4937V5.19982h2.7431V7.33205H40.3288V11.7219C40.3288 12.2236 40.4223 12.6208 40.6093 12.9135 40.7963 13.2061 41.1669 13.3525 41.7211 13.3525 41.9428 13.3525 42.1852 13.3281 42.4484 13.2793 42.7117 13.2305 42.9195 13.1504 43.0719 13.0389v2.1113C42.8086 15.2757 42.4865 15.3628 42.1055 15.4115zM49.0288 15.4847C49.8185 15.4847 50.5735 15.3314 51.2939 15.0248 52.0144 14.7182 52.6655 14.2026 53.2474 13.4779l-1.7872-1.3588c-.3187.3902-.6892.7142-1.1118.972100000000001C49.9259 13.349 49.4029 13.4779 48.7794 13.4779 48.0729 13.4779 47.4702 13.2688 46.9715 12.8508 46.4728 12.4327 46.1818 11.8474 46.0987 11.0948h7.6058V10.405c0-.87801-.1143-1.65495-.3429-2.33086C53.1331 7.39824 52.8144 6.83034 52.4057 6.37045 51.997 5.91056 51.5052 5.55867 50.9303 5.31479 50.3553 5.07091 49.7215 4.94896 49.0288 4.94896 48.2807 4.94896 47.5741 5.07439 46.9092 5.32524 46.2442 5.57609 45.6692 5.93146 45.1843 6.39136 44.6994 6.85125 44.315 7.40521 44.031 8.05324 43.747 8.70127 43.605 9.42247 43.605 10.2168 43.605 11.0112 43.747 11.7324 44.031 12.3804S44.6994 13.5824 45.1843 14.0423C45.6692 14.5022 46.2442 14.8576 46.9092 15.1084 47.5741 15.3593 48.2807 15.4847 49.0288 15.4847zM46.0987 9.21343h5.1121C51.197 8.47481 50.9684 7.89298 50.525 7.46792 50.0817 7.04287 49.4652 6.83035 48.6755 6.83035 47.9274 6.83035 47.3352 7.04636 46.8988 7.47838 46.4624 7.9104 46.1957 8.48875 46.0987 9.21343zM58.3152 15.4847C58.8278 15.4847 59.3404 15.4289 59.853 15.3175 60.3656 15.206 60.8263 15.0248 61.235 14.7739 61.6437 14.5231 61.9762 14.1921 62.2325 13.781 62.4888 13.3699 62.6169 12.8647 62.6169 12.2654 62.6169 11.6104 62.4853 11.0948 62.2221 10.7185 61.9588 10.3423 61.6263 10.0461 61.2246 9.8301 60.8228 9.61409 60.3899 9.45382 59.9258 9.3493 59.4617 9.24478 59.0287 9.14374 58.627 9.04619 58.2252 8.94864 57.8927 8.83018 57.6295 8.69082 57.3662 8.55146 57.2346 8.32848 57.2346 8.02188 57.2346 7.64561 57.394 7.37385 57.7126 7.20662 58.0312 7.03939 58.3568 6.95577 58.6893 6.95577 59.5067 6.95577 60.1578 7.2972 60.6427 7.98008l1.6625-1.50511C61.9034 5.91753 61.377 5.52383 60.7258 5.29388c-.6511-.22994-1.3092-.34492-1.9742-.34492C58.2529 4.94896 57.7611 5.01168 57.2762 5.1371 56.7913 5.26253 56.3618 5.45763 55.9878 5.72242 55.6137 5.98721 55.3124 6.32516 55.0838 6.73627 54.8552 7.14739 54.7409 7.63167 54.7409 8.18912c0 .64106.131599999999999 1.14276.3949 1.5051C55.399 10.0566 55.7315 10.3388 56.1332 10.5408 56.535 10.7429 56.9679 10.8892 57.4321 10.9798 57.8962 11.0704 58.3291 11.168 58.7309 11.2725 59.1326 11.377 59.4651 11.5129 59.7284 11.6801 59.9916 11.8474 60.1232 12.1052 60.1232 12.4536 60.1232 12.6487 60.0712 12.8194 59.9673 12.9657 59.8634 13.1121 59.7284 13.234 59.5621 13.3316 59.3959 13.4291 59.2158 13.4988 59.0218 13.5406 58.8278 13.5824 58.6408 13.6033 58.4607 13.6033 57.9343 13.6033 57.4875 13.4883 57.1203 13.2584 56.7532 13.0284 56.4103 12.7323 56.0917 12.37l-1.6625 1.5678C54.9418 14.5231 55.5237 14.9272 56.1748 15.1502s1.3646.3345 2.1404.3345zM66.1217 13.9587V20H63.628V5.19981h2.369V6.70492H66.0386C66.3988 6.09173 66.8837 5.64577 67.4932 5.36705 68.1028 5.08833 68.7609 4.94896 69.4674 4.94896 70.2294 4.94896 70.9152 5.08484 71.5247 5.3566c.6096.27175 1.1292.64454 1.5586 1.11837C73.5128 6.9488 73.8384 7.50625 74.06 8.14731 74.2817 8.78837 74.3925 9.47821 74.3925 10.2168 74.3925 10.9554 74.2748 11.6453 74.0392 12.2863 73.8037 12.9274 73.4747 13.4849 73.0522 13.9587 72.6296 14.4325 72.1205 14.8053 71.5247 15.0771 70.929 15.3488 70.2779 15.4847 69.5713 15.4847 69.1003 15.4847 68.6847 15.4359 68.3245 15.3384 67.9643 15.2408 67.6456 15.1154 67.3686 14.9621 67.0915 14.8088 66.856 14.645 66.662 14.4708 66.4681 14.2966 66.3087 14.1259 66.1841 13.9587H66.1217zM68.9687 13.227C68.5115 13.227 68.1028 13.1434 67.7426 12.9762 67.3824 12.809 67.0742 12.586 66.8179 12.3073 66.5616 12.0285 66.3676 11.708 66.236 11.3457 66.1044 10.9833 66.0386 10.607 66.0386 10.2168 66.0386 9.82662 66.1044 9.45034 66.236 9.088 66.3676 8.72566 66.5616 8.40513 66.8179 8.12641 67.0742 7.84768 67.3824 7.62471 67.7426 7.45747 68.1028 7.29024 68.5115 7.20662 68.9687 7.20662S69.8346 7.29024 70.1948 7.45747C70.555 7.62471 70.8632 7.84768 71.1195 8.12641 71.3758 8.40513 71.5698 8.72566 71.7014 9.088 71.833 9.45034 71.8988 9.82662 71.8988 10.2168 71.8988 10.607 71.833 10.9833 71.7014 11.3457 71.5698 11.708 71.3758 12.0285 71.1195 12.3073 70.8632 12.586 70.555 12.809 70.1948 12.9762 69.8346 13.1434 69.4259 13.227 68.9687 13.227zm14.02 1.7978C82.2683 15.3314 81.5133 15.4847 80.7236 15.4847 79.9755 15.4847 79.2689 15.3593 78.6039 15.1084 77.9389 14.8576 77.364 14.5022 76.8791 14.0423 76.3942 13.5824 76.0098 13.0284 75.7258 12.3804 75.4418 11.7324 75.2998 11.0112 75.2998 10.2168 75.2998 9.42247 75.4418 8.70127 75.7258 8.05324 76.0098 7.40521 76.3942 6.85125 76.8791 6.39136 77.364 5.93146 77.9389 5.57609 78.6039 5.32524 79.2689 5.07439 79.9755 4.94896 80.7236 4.94896 81.4163 4.94896 82.0501 5.07091 82.6251 5.31479 83.2 5.55867 83.6918 5.91056 84.1005 6.37045 84.5092 6.83034 84.8278 7.39824 85.0564 8.07414c.2286.67591.3429 1.45285.3429 2.33086v.6898H77.7935C77.8766 11.8474 78.1675 12.4327 78.6663 12.8508 79.165 13.2688 79.7677 13.4779 80.4742 13.4779 81.0976 13.4779 81.6206 13.349 82.0432 13.0912 82.4657 12.8333 82.8363 12.5093 83.155 12.1191l1.7871 1.3588C84.3603 14.2026 83.7091 14.7182 82.9887 15.0248zM82.9056 9.21343H77.7935C77.8904 8.48875 78.1571 7.9104 78.5935 7.47838 79.0299 7.04636 79.6222 6.83035 80.3703 6.83035 81.16 6.83035 81.7765 7.04287 82.2198 7.46792 82.6631 7.89298 82.8917 8.47481 82.9056 9.21343zM92.52 15.4115C92.2152 15.4603 91.952 15.4847 91.7303 15.4847 90.9822 15.4847 90.2757 15.3593 89.6107 15.1084 88.9457 14.8576 88.3707 14.5022 87.8859 14.0423 87.401 13.5824 87.0165 13.0284 86.7325 12.3804 86.4485 11.7324 86.3065 11.0112 86.3065 10.2168 86.3065 9.42247 86.4485 8.70127 86.7325 8.05324 87.0165 7.40521 87.401 6.85125 87.8859 6.39136 88.3707 5.93146 88.9457 5.57609 89.6107 5.32524 90.2757 5.07439 90.9822 4.94897 91.7303 4.94897L93.5014 4.9488V7.20744S91.9484 7.20662 91.7303 7.20662C91.2732 7.20662 90.8645 7.29024 90.5043 7.45747 90.1441 7.62471 89.8358 7.84768 89.5795 8.12641 89.3232 8.40513 89.1292 8.72566 88.9976 9.088 88.866 9.45034 88.8002 9.82662 88.8002 10.2168 88.8002 10.607 88.866 10.9833 88.9976 11.3457 89.1292 11.708 89.3232 12.0285 89.5795 12.3073 89.8358 12.586 90.1441 12.809 90.5043 12.9762 90.8645 13.1434 91.2732 13.227 91.7303 13.227 92.1182 13.227 92.4784 13.1469 92.8109 12.9866 93.1434 12.8264 93.4274 12.5929 93.663 12.2863L95.3254 14.0841C95.0761 14.335 94.7886 14.551 94.463 14.7321 94.1375 14.9133 93.8084 15.0596 93.4759 15.1711 93.1434 15.2826 92.8248 15.3628 92.52 15.4115zM100.056 15.4847C100.347 15.4847 100.683 15.4603 101.064 15.4115 101.445 15.3628 101.767 15.2757 102.031 15.1502V13.0389C101.878 13.1504 101.67 13.2305 101.407 13.2793 101.144 13.3281 100.901 13.3525 100.68 13.3525 100.126 13.3525 99.755 13.2061 99.568 12.9135 99.381 12.6208 99.2875 12.2236 99.2875 11.7219V7.18617H102.031V4.9488H99.2875V2.29413H96.7938V4.9488H94.7365V7.18617h2.0573V11.931C96.7938 12.5163 96.8388 13.0319 96.9288 13.4779 97.0189 13.9238 97.1851 14.2966 97.4276 14.5963 97.67 14.8959 98.0025 15.1189 98.4251 15.2652 98.8476 15.4115 99.3914 15.4847 100.056 15.4847zm5.526-5.62324V15.2338h-2.494V4.9488h2.494V6.78854H105.624C105.901 6.20322 106.296 5.75029 106.808 5.42976 107.321 5.10923 107.91 4.94897 108.575 4.94897 108.727 4.94897 108.876 4.9629 109.021 4.99077 109.167 5.01865 109.316 5.05349 109.468 5.09529V7.52018C109.26 7.46444 109.056 7.41915 108.855 7.38431 108.654 7.34947 108.457 7.33205 108.263 7.33205 107.681 7.33205 107.213 7.44005 106.86 7.65606S106.237 8.11944 106.05 8.39816 105.738 8.95561 105.676 9.23433C105.613 9.51305 105.582 9.7221 105.582 9.86146zM114.875 15.4847C115.665 15.4847 116.42 15.3314 117.14 15.0248 117.861 14.7182 118.512 14.2026 119.094 13.4779l-1.788-1.3588C116.988 12.5093 116.617 12.8333 116.195 13.0912 115.772 13.349 115.249 13.4779 114.626 13.4779 113.919 13.4779 113.316 13.2688 112.818 12.8508 112.319 12.4327 112.028 11.8474 111.945 11.0948H119.551V10.405C119.551 9.52699 119.436 8.75005 119.208 8.07414 118.979 7.39824 118.661 6.83034 118.252 6.37045 117.843 5.91056 117.351 5.55867 116.776 5.31479 116.202 5.07091 115.568 4.94896 114.875 4.94896 114.127 4.94896 113.42 5.07439 112.755 5.32524 112.09 5.57609 111.515 5.93146 111.031 6.39136 110.546 6.85125 110.161 7.40521 109.877 8.05324 109.593 8.70127 109.451 9.42247 109.451 10.2168 109.451 11.0112 109.593 11.7324 109.877 12.3804 110.161 13.0284 110.546 13.5824 111.031 14.0423 111.515 14.5022 112.09 14.8576 112.755 15.1084 113.42 15.3593 114.127 15.4847 114.875 15.4847zM111.945 9.21343H117.057C117.043 8.47481 116.815 7.89298 116.371 7.46792 115.928 7.04287 115.311 6.83035 114.522 6.83035 113.774 6.83035 113.181 7.04636 112.745 7.47838 112.309 7.9104 112.042 8.48875 111.945 9.21343z"
        fill="#074b52"></path>
</svg>