<svg width="30" height="24" viewBox="0 0 30 24" fill="none" xmlns="http://www.w3.org/2000/svg">
  <path fill-rule="evenodd" clip-rule="evenodd"
    d="M11.6906.0l11.695 11.7708 2.2386 2.2176C27.8531 16.1964 27.8826 19.806 25.6901 22.0506 25.0814 22.6738 24.2907 23.2815 23.4577 23.5274 23.3959 23.5456 23.3857 23.5417 23.3857 23.5417L11.6907 11.7709 11.6906.0zM0 .00442121 11.6906 11.7708 11.6907 11.7709V23.5417L0 11.7752V.00442121zM29.5721.0 29.5785 11.762 24.668 6.94379C23.1096 5.4146 23.0708 2.7792 24.5893 1.20968 25.3262.448065 26.3357.0162155 27.3916.0109086L29.5721.0z"
    fill="#074b52"></path>
</svg>